<svg viewBox="0 0 641 624" xmlns="http://www.w3.org/2000/svg"><defs>
<filter x="-1.7%" y="-1.4%" width="103.4%" height="103.9%" filterUnits="objectBoundingBox" id="a"><feOffset dy="2" in="SourceAlpha" result="shadowOffsetOuter1"/><feGaussianBlur stdDeviation="2" in="shadowOffsetOuter1" result="shadowBlurOuter1"/><feColorMatrix values="0 0 0 0 0 0 0 0 0 0 0 0 0 0 0 0 0 0 0.5 0" in="shadowBlurOuter1" result="shadowMatrixOuter1"/><feMerge>
<feMergeNode in="shadowMatrixOuter1"/><feMergeNode in="SourceGraphic"/></feMerge></filter>
<filter x="-2.7%" y="-1.4%" width="105.4%" height="104%" filterUnits="objectBoundingBox" id="b"><feOffset dy="2" in="SourceAlpha" result="shadowOffsetOuter1"/><feGaussianBlur stdDeviation="2" in="shadowOffsetOuter1" result="shadowBlurOuter1"/><feColorMatrix values="0 0 0 0 0 0 0 0 0 0 0 0 0 0 0 0 0 0 0.5 0" in="shadowBlurOuter1" result="shadowMatrixOuter1"/><feMerge><feMergeNode in="shadowMatrixOuter1"/><feMergeNode in="SourceGraphic"/></feMerge></filter>
<filter x="-2%" y="-1.9%" width="103.9%" height="105.4%" filterUnits="objectBoundingBox" id="c"><feOffset dy="2" in="SourceAlpha" result="shadowOffsetOuter1"/><feGaussianBlur stdDeviation="2" in="shadowOffsetOuter1" result="shadowBlurOuter1"/><feColorMatrix values="0 0 0 0 0 0 0 0 0 0 0 0 0 0 0 0 0 0 0.5 0" in="shadowBlurOuter1" result="shadowMatrixOuter1"/><feMerge><feMergeNode in="shadowMatrixOuter1"/><feMergeNode in="SourceGraphic"/></feMerge></filter>
<filter x="-2.2%" y="-1.1%" width="104.4%" height="103.1%" filterUnits="objectBoundingBox" id="d"><feOffset dy="2" in="SourceAlpha" result="shadowOffsetOuter1"/><feGaussianBlur stdDeviation="2" in="shadowOffsetOuter1" result="shadowBlurOuter1"/><feColorMatrix values="0 0 0 0 0 0 0 0 0 0 0 0 0 0 0 0 0 0 0.5 0" in="shadowBlurOuter1" result="shadowMatrixOuter1"/><feMerge><feMergeNode in="shadowMatrixOuter1"/><feMergeNode in="SourceGraphic"/></feMerge></filter>
<filter x="-2.2%" y="-1.1%" width="104.4%" height="103.1%" filterUnits="objectBoundingBox" id="e"><feOffset dy="2" in="SourceAlpha" result="shadowOffsetOuter1"/><feGaussianBlur stdDeviation="2" in="shadowOffsetOuter1" result="shadowBlurOuter1"/><feColorMatrix values="0 0 0 0 0 0 0 0 0 0 0 0 0 0 0 0 0 0 0.5 0" in="shadowBlurOuter1" result="shadowMatrixOuter1"/><feMerge><feMergeNode in="shadowMatrixOuter1"/><feMergeNode in="SourceGraphic"/></feMerge></filter>
</defs>
<g fill="none" fill-rule="evenodd">
<g  transform="translate(224 1)" fill="#7ED321"><path d="M413.042 359.164L96 .767l-.199 358.397h99.578l-.093-23.172-4.006-5.388c-12.511-16.829-10.497-40.348 4.693-54.804l.99-.942c15.419-14.674 39.533-15.013 55.358-.778l.736.662c15.67 14.098 18.526 37.601 6.686 55.04l-4.376 6.446.289 22.936h157.386z"/><path d="M97.287 185.055v61.024l-23.531.008-5.928 4.407C51 263.005 27.481 260.991 13.025 245.801l-1.752-1.84c-14.674-15.419-15.012-39.533-.777-55.358l1.444-1.604c14.097-15.671 37.6-18.526 55.039-6.686l7.017 4.763 23.291-.021z"/></g>
<g  transform="translate(319 264)" fill="#D51F33"><path d="M.801 353.62h256.9V96.164H1V194.6l23.46-.094 5.388-4.005c16.829-12.511 40.347-10.497 54.804 4.693l.942.99c14.674 15.419 15.013 39.533.777 55.358l-.662.735c-14.097 15.671-37.6 18.527-55.039 6.687l-6.446-4.376L1 254.877.801 353.62z"/><path d="M160.497 97.508H99.552l-.008-23.5-4.372-5.881c-12.511-16.829-10.497-40.348 4.693-54.804l1.767-1.681c15.419-14.674 39.533-15.013 55.358-.778l1.529 1.376c15.671 14.098 18.526 37.601 6.687 55.04l-4.731 6.967.022 23.261z"/></g>
<g  transform="translate(62 360)" fill="#FBA210"><path d="M.379.207V257.62h257.422L257.978.207h-99.579l.094 23.172 4.006 5.389c12.511 16.828 10.496 40.347-4.694 54.803l-.99.943c-15.419 14.674-39.533 15.012-55.357.777l-.736-.662c-15.671-14.097-18.526-37.6-6.686-55.04l4.376-6.446-.29-22.936H.379z"/><path d="M256.491 159.735V98.163l23.742-.009 6.247-4.643c16.828-12.511 40.347-10.497 54.803 4.693l2.228 2.341c14.674 15.419 15.013 39.533.777 55.358l-1.903 2.116c-14.098 15.671-37.601 18.527-55.04 6.687l-7.353-4.992-23.501.021z"/></g>
<g  fill="#2678D7" transform="translate(3 1)"><path d="M316.801.767L.856 359.164h315.945V246.057l-23.173.008-5.388 4.006c-16.829 12.511-40.347 10.497-54.804-4.693l-.942-.99c-14.674-15.419-15.012-39.533-.777-55.358l.662-.736c14.097-15.671 37.6-18.526 55.039-6.686l6.446 4.376 22.937-.021V.767z"/><path d="M157.049 357.532h61.058l.008 23.544 4.422 5.948c12.511 16.829 10.496 40.347-4.694 54.804l-1.871 1.78c-15.418 14.674-39.532 15.013-55.357.777l-1.636-1.471c-15.671-14.097-18.526-37.601-6.686-55.04l4.777-7.037-.021-23.305z"/></g>
<g  fill="#2678D7" transform="translate(3 1)"><path d="M316.801.767L.856 359.164h315.945V246.057l-23.173.008-5.388 4.006c-16.829 12.511-40.347 10.497-54.804-4.693l-.942-.99c-14.674-15.419-15.012-39.533-.777-55.358l.662-.736c14.097-15.671 37.6-18.526 55.039-6.686l6.446 4.376 22.937-.021V.767z"/><path d="M157.049 357.532h61.058l.008 23.544 4.422 5.948c12.511 16.829 10.496 40.347-4.694 54.804l-1.871 1.78c-15.418 14.674-39.532 15.013-55.357.777l-1.636-1.471c-15.671-14.097-18.526-37.601-6.686-55.04l4.777-7.037-.021-23.305z"/></g></g></svg>
